# xmcd
#
# Track frame offsets:
#	150
#	17260
#	34697
#	52300
#	71312
#	85972
#	95657
#	112692
#	127040
#	139860
#	154625
#	169057
#	187855
#	206500
#	222057
#	240262
#	252457
#	266530
#	280462
#	292597
#
# Disc length: 4156 seconds
#
# Revision: 1
# Processed by: cddbd v1.5.1PL0 Copyright (c) Steve Scherf et al.
# Submitted via: EasyCDDAExtractor 6.0.0.1
#
DISCID=11103a14
DTITLE=Kemal Monteno - Pjesme zaljubljenika
DYEAR=1995
DGENRE=Ballad
TTITLE0=Napisi jednu ljubavnu
TTITLE1=Za svoju dusu
TTITLE2=Pjesma zaljubljenika
TTITLE3=Zvoni jednom
TTITLE4=Veceras pisem posljednje pismo
TTITLE5=Laz
TTITLE6=Pahuljice moja
TTITLE7=Duso moja
TTITLE8=Jedne noci u decembru
TTITLE9=Djevojcice
TTITLE10=Na kraju grada
TTITLE11=Nije htjela
TTITLE12=Kratak je svaki tren
TTITLE13=Jos jucer bili smo sretni
TTITLE14=Ljubavna bol
TTITLE15=Sto sam ti skrivio, zivote moj
TTITLE16=Sarajevo, ljubavi moja
TTITLE17=Olivija
TTITLE18=Sinoc pod prozorom njenim
TTITLE19=Ja se nadam
EXTD=
EXTT0=
EXTT1=
EXTT2=
EXTT3=
EXTT4=
EXTT5=
EXTT6=
EXTT7=
EXTT8=
EXTT9=
EXTT10=
EXTT11=
EXTT12=
EXTT13=
EXTT14=
EXTT15=
EXTT16=
EXTT17=
EXTT18=
EXTT19=
PLAYORDER=
